<?xml version="1.0" encoding="utf-8"?>
<!-- Generator: Adobe Illustrator 28.4.1, SVG Export Plug-In . SVG Version: 6.00 Build 0)  -->
<svg version="1.1" id="Layer_1" xmlns="http://www.w3.org/2000/svg" xmlns:xlink="http://www.w3.org/1999/xlink" x="0px" y="0px"
	 viewBox="0 0 283.46 283.46" style="enable-background:new 0 0 283.46 283.46;" xml:space="preserve">
<style type="text/css">
	.st0{fill:#2F0406;}
	.st1{fill:#F0951B;}
</style>
<path class="st0" d="M268.88,260.95H144.29c-25.92,0-46.94-21.02-46.94-46.94V83.1c0-25.92,21.02-46.94,46.94-46.94h124.59
	c25.92,0,46.94,21.02,46.94,46.94v130.91C315.82,239.93,294.81,260.95,268.88,260.95z"/>
<g id="NyRJMN_00000098179046774233139940000002496358729425992639_">
	<g>
		<path class="st1" d="M186.4,97.09c4.15,0,8.3,0.04,12.44-0.02c1.57-0.02,2.43,0.56,2.97,2.07
			c12.42,35.15,24.88,70.28,37.32,105.42c0.82,2.3,0.19,3.17-2.33,3.17c-6.51,0.01-13.02-0.04-19.52,0.03
			c-1.61,0.02-2.4-0.59-2.9-2.11c-2.45-7.44-5.03-14.84-7.47-22.29c-0.44-1.33-1.06-1.72-2.41-1.72
			c-11.87,0.03-23.73,0.01-35.6-0.07c-1.2-0.01-1.63,0.45-1.96,1.5c-2.29,7.36-4.69,14.69-6.91,22.07c-0.61,2.02-1.62,2.69-3.7,2.63
			c-5.55-0.15-11.1-0.09-16.65-0.11c-2.96-0.01-3.54-0.8-2.56-3.61c7.45-21.49,14.91-42.98,22.37-64.47
			c3.61-10.41,7.24-20.83,10.84-31.24c1.07-3.1,1.61-6.31,1.52-9.59c-0.04-1.38,0.42-1.72,1.73-1.7
			C177.85,97.14,182.12,97.1,186.4,97.09C186.4,97.09,186.4,97.09,186.4,97.09z M199.97,160.22c-4.47-14.34-8.89-28.5-13.3-42.66
			c-0.65,1.09-0.89,2.13-1.17,3.15c-3.21,11.81-6.99,23.44-10.66,35.11c-0.44,1.39-1.69,3.12-1.04,4.08c0.65,0.96,2.71,0.3,4.14,0.3
			C185.2,160.24,192.46,160.22,199.97,160.22z"/>
		<path class="st1" d="M274.5,166.35c0,13.21-0.03,26.42,0.03,39.64c0.01,1.65-0.39,2.21-2.12,2.19
			c-6.51-0.09-13.02-0.06-19.53,0.02c-1.46,0.02-1.83-0.5-1.83-1.89c0.03-26.68,0.03-53.36-0.02-80.04c0-1.63,0.56-2.04,2.1-2.03
			c6.45,0.07,12.89,0.08,19.34,0c1.62-0.02,2.05,0.54,2.05,2.1C274.48,139.67,274.5,153.01,274.5,166.35z"/>
		<path class="st1" d="M276.5,102.58c-0.08,7.52-6.3,13.6-13.77,13.48c-7.37-0.12-13.4-6.33-13.35-13.73
			c0.05-7.43,6.2-13.5,13.59-13.41C270.62,89.01,276.58,95.03,276.5,102.58z"/>
	</g>
</g>
</svg>
